# xmcd CD database file
#
# Track frame offsets:
#	150
#	23880
#	38297
#	53750
#	73402
#	105565
#	130242
#	145957
#	164252
#	184632
#	199680
#	240772
#
# Disc length: 3255 seconds
#
# Revision: 3
# Processed by: cddbd v1.5.2PL0 Copyright (c) Steve Scherf et al.
# Submitted via: CDex 1.70beta2
#
DISCID=9a0cb50c
DTITLE=Gomez - Bring It On
DYEAR=1998
DGENRE=Alt. Rock
TTITLE0=Get Miles
TTITLE1=Whippin' Piccadilly
TTITLE2=Make No Sound
TTITLE3=78 Stone Wobble
TTITLE4=Tijuana Lady
TTITLE5=Here Comes The Breeze
TTITLE6=Love Is Better Than a Warm Trombone
TTITLE7=Get Myself Arrested
TTITLE8=Free To Run
TTITLE9=Bubble Gum Years
TTITLE10=Rie's Wagon
TTITLE11=The Comeback
EXTD=YEAR: 1998
EXTT0=
EXTT1=
EXTT2=
EXTT3=
EXTT4=
EXTT5=
EXTT6=
EXTT7=
EXTT8=
EXTT9=
EXTT10=
EXTT11=
PLAYORDER=
